<?xml version="1.0" encoding="UTF-8" standalone="no"?>
<!-- Generator: Adobe Illustrator 15.1.0, SVG Export Plug-In . SVG Version: 6.00 Build 0)  -->

<svg
   xmlns:dc="http://purl.org/dc/elements/1.1/"
   xmlns:cc="http://creativecommons.org/ns#"
   xmlns:rdf="http://www.w3.org/1999/02/22-rdf-syntax-ns#"
   xmlns:svg="http://www.w3.org/2000/svg"
   xmlns="http://www.w3.org/2000/svg"
   xmlns:sodipodi="http://sodipodi.sourceforge.net/DTD/sodipodi-0.dtd"
   xmlns:inkscape="http://www.inkscape.org/namespaces/inkscape"
   version="1.1"
   id="レイヤー_3"
   x="0px"
   y="0px"
   width="232px"
   height="65.447px"
   viewBox="0 0 232 65.447"
   enable-background="new 0 0 232 65.447"
   xml:space="preserve"
   sodipodi:docname="logo.svg"
   inkscape:version="0.92.2 (5c3e80d, 2017-08-06)"><metadata
     id="metadata39"><rdf:RDF><cc:Work
         rdf:about=""><dc:format>image/svg+xml</dc:format><dc:type
           rdf:resource="http://purl.org/dc/dcmitype/StillImage" /><dc:title></dc:title></cc:Work></rdf:RDF></metadata><defs
     id="defs37" /><sodipodi:namedview
     pagecolor="#ffffff"
     bordercolor="#666666"
     borderopacity="1"
     objecttolerance="10"
     gridtolerance="10"
     guidetolerance="10"
     inkscape:pageopacity="0"
     inkscape:pageshadow="2"
     inkscape:window-width="797"
     inkscape:window-height="480"
     id="namedview35"
     showgrid="false"
     inkscape:zoom="0.48842182"
     inkscape:cx="103.29689"
     inkscape:cy="36.992915"
     inkscape:window-x="0"
     inkscape:window-y="0"
     inkscape:window-maximized="0"
     inkscape:current-layer="レイヤー_3" /><path
     fill="#FFFFFF"
     d="M40.108,45.986c-6.248,0-10.554-0.515-14.011-1.514c-5.074,1.783-12.6,1.255-17.814-1.432  c-3.638-1.873-5.771-4.524-6.169-7.671c-0.066-0.52,0.302-0.995,0.822-1.061c0.52-0.064,0.994,0.303,1.061,0.821  c0.399,3.155,3.024,5.125,5.155,6.223c3.997,2.059,9.441,2.752,13.801,1.987c-2.739-1.19-5.068-2.773-7.803-4.728  C-0.466,27.461-1.248,16.921,0.845,10.043C3.04,2.831,9.091,0.128,14.021,0.005c5.229-0.129,9.84,2.274,12.043,6.125  c2.88-3.873,7.808-6.184,12.791-5.866C44.494,0.622,49.051,4.16,51.357,9.97c5.075,12.78-13.948,28.223-22.584,33.222  c3.979,0.824,9.178,1.082,17.015,0.776c2.729-0.107,6.207-0.412,10.232-0.767c10.971-0.961,25.996-2.279,41.032-0.911  c17.16,1.561,35.061,1.863,54.729,0.928c1.697-0.081,3.73-0.187,6.035-0.306c19.588-1.01,56.047-2.889,73.385-0.056  c0.518,0.085,0.867,0.572,0.783,1.09c-0.084,0.517-0.571,0.865-1.09,0.783c-17.139-2.802-54.854-0.856-72.979,0.078  c-2.308,0.119-4.345,0.224-6.044,0.305c-19.755,0.941-37.743,0.637-54.991-0.933c-14.868-1.352-29.795-0.043-40.695,0.911  c-4.05,0.355-7.548,0.661-10.323,0.771C43.777,45.945,41.865,45.986,40.108,45.986z M14.428,1.898c-0.119,0-0.239,0.001-0.359,0.004  C8.54,2.041,4.275,5.291,2.661,10.595c-2.742,9.011,1.958,18.165,13.591,26.476c3.406,2.433,6.099,4.235,9.77,5.404  c0.33-0.138,0.646-0.285,0.945-0.447c8.505-4.579,27.096-20.107,22.628-31.358c-2.025-5.1-5.983-8.201-10.86-8.513  c-4.873-0.312-9.689,2.257-11.976,6.391l-1.014,1.833l-0.709-1.97C23.623,4.483,19.387,1.898,14.428,1.898z"
     id="path2"
     style="fill:#000000" /><g
     id="g20"
     style="fill:#000000"><path
       fill="#FFFFFF"
       d="M72.484,36.158c-0.659,0-1.318-0.581-1.318-1.318V23.329H59.771V34.84c0,0.737-0.542,1.318-1.279,1.318   c-0.698,0-1.279-0.581-1.279-1.318V9.336c0-0.658,0.582-1.278,1.279-1.278c0.736,0,1.279,0.62,1.279,1.278v11.513h11.395V9.336   c0-0.658,0.659-1.278,1.318-1.278c0.659,0,1.279,0.62,1.279,1.278V34.84C73.763,35.577,73.182,36.158,72.484,36.158z"
       id="path4"
       style="fill:#000000" /><path
       fill="#FFFFFF"
       d="M78.567,26.352v-8.488c0-5.349,2.48-9.806,8.837-9.806c6.279,0,8.798,4.457,8.798,9.806v8.488   c0,5.465-2.945,9.806-8.798,9.806S78.567,31.817,78.567,26.352z M81.164,17.864v8.488c0,4.303,1.977,7.326,6.24,7.326   c4.263,0,6.202-3.023,6.202-7.326v-8.488c0-4.38-1.667-7.326-6.202-7.326C82.792,10.538,81.164,13.484,81.164,17.864z"
       id="path6"
       style="fill:#000000" /><path
       fill="#FFFFFF"
       d="M109.999,24.259c-0.814-0.426-1.977-0.853-3.101-1.239c-3.411-1.163-7.093-2.364-7.093-7.52   c0-4.65,2.985-7.441,7.752-7.441c1.899,0,6.434,0.426,6.434,2.402c0,0.62-0.465,1.202-1.279,1.202c-0.426,0-0.93-0.155-1.356-0.349   c-0.891-0.35-1.977-0.775-3.566-0.775c-2.713,0-5.271,1.085-5.271,4.768c0,2.752,1.512,3.721,2.48,4.225   c0.853,0.426,2.016,0.891,3.101,1.24c3.294,1.085,7.055,2.52,7.055,7.479c0,5.039-3.566,7.907-8.372,7.907   c-2.442,0-7.016-0.697-7.016-2.597c0-0.659,0.542-1.279,1.163-1.279c0.233,0,0.853,0.233,1.434,0.427   c1.008,0.427,2.442,0.97,4.458,0.97c3.721,0,5.582-1.899,5.582-5.155C112.402,25.887,111.045,24.802,109.999,24.259z"
       id="path8"
       style="fill:#000000" /><path
       fill="#FFFFFF"
       d="M141.236,34.957c0,0.659-0.582,1.201-1.24,1.201c-0.698,0-1.355-0.542-1.355-1.201V14.414   c-2.056,4.457-4.846,10.271-6.938,14.729c-0.271,0.504-0.736,0.774-1.24,0.774c-0.543,0-1.008-0.31-1.239-0.774l-6.978-14.729   v20.542c0,0.659-0.581,1.201-1.356,1.201c-0.658,0-1.201-0.542-1.201-1.201V9.453c0-0.813,0.582-1.395,1.396-1.395   c0.659,0,1.085,0.31,1.396,0.891V8.91l8.023,17.17l7.984-17.209V8.91c0.349-0.62,0.853-0.853,1.396-0.853   c0.737,0,1.356,0.62,1.356,1.395v25.505H141.236z"
       id="path10"
       style="fill:#000000" /><path
       fill="#FFFFFF"
       d="M147.667,35.228c-0.231,0.465-0.813,0.93-1.239,0.93c-0.736,0-1.357-0.504-1.357-1.279   c0-0.115,0.039-0.388,0.078-0.504l7.713-24.418c0.311-1.085,0.775-1.898,1.783-1.898c0.969,0,1.473,0.853,1.821,1.898l7.714,24.418   c0,0.078,0.039,0.35,0.039,0.504c0,0.775-0.582,1.279-1.357,1.279c-0.465,0-1.086-0.387-1.24-0.93l-1.782-5.737h-10.427   L147.667,35.228z M150.148,26.972h8.953l-4.457-14.69L150.148,26.972z"
       id="path12"
       style="fill:#000000" /><path
       fill="#FFFFFF"
       d="M173.325,10.925h-5.659c-0.775,0-1.318-0.542-1.318-1.2c0-0.582,0.582-1.279,1.318-1.279h13.914   c0.697,0,1.316,0.543,1.316,1.279c0,0.658-0.58,1.2-1.316,1.2h-5.697v23.954c0,0.698-0.543,1.279-1.24,1.279   c-0.735,0-1.316-0.581-1.316-1.279L173.325,10.925L173.325,10.925z"
       id="path14"
       style="fill:#000000" /><path
       fill="#FFFFFF"
       d="M185.841,17.864c0-5.93,2.752-9.806,8.644-9.806c3.449,0,6.705,1.434,6.705,3.101   c0,0.62-0.465,1.085-1.123,1.085c-0.351,0-0.543-0.155-0.854-0.349c-0.078-0.078-0.271-0.155-0.388-0.232   c-1.279-0.853-2.597-1.317-4.147-1.317c-4.689,0-6.24,2.906-6.24,7.52v8.488c0,4.574,1.551,7.48,6.24,7.48   c1.551,0,2.868-0.388,4.07-1.239l0.426-0.271c0.389-0.271,0.62-0.388,0.893-0.388c0.658,0,1.123,0.504,1.123,1.085   c0,1.705-3.256,3.101-6.705,3.101c-5.892,0-8.644-3.876-8.644-9.768V17.864z"
       id="path16"
       style="fill:#000000" /><path
       fill="#FFFFFF"
       d="M220.917,36.158c-0.659,0-1.317-0.581-1.317-1.318V23.329h-11.396V34.84c0,0.737-0.542,1.318-1.278,1.318   c-0.698,0-1.278-0.581-1.278-1.318V9.336c0-0.658,0.58-1.278,1.278-1.278c0.736,0,1.278,0.62,1.278,1.278v11.513H219.6V9.336   c0-0.658,0.658-1.278,1.317-1.278c0.658,0,1.278,0.62,1.278,1.278V34.84C222.195,35.577,221.613,36.158,220.917,36.158z"
       id="path18"
       style="fill:#000000" /></g><g
     id="g32"
     style="fill:#000000"><path
       fill="#FFFFFF"
       d="M98.441,61.02c0.271-0.321,1.458-1.813,2.289-3.696c0.136-0.322,0.271-0.525,0.526-0.525   c0.255,0,0.475,0.222,0.475,0.476c0,0.237-0.424,1.746-1.153,3.341c-1.102,2.391-1.476,2.544-1.95,2.544   c-0.526,0-0.95-0.425-0.95-0.898C97.678,61.936,97.695,61.885,98.441,61.02z M105.462,62.886c0,0.729,0,1.983-1.475,1.983   c-0.662,0-1.577-0.204-2.29-0.476c-0.407-0.152-0.712-0.288-0.712-0.61c0-0.237,0.17-0.475,0.424-0.475   c0.084,0,0.593,0.169,0.831,0.236c0.373,0.119,0.593,0.152,0.763,0.152c0.509,0,0.56-0.322,0.56-0.916V55h-5.07   c-0.186,0-0.61,0-0.61-0.458s0.424-0.458,0.61-0.458h5.07v-2.306c0-0.356,0-1.001,0.95-1.001c0.95,0,0.95,0.628,0.95,1.001v2.306   h5.104c0.17,0,0.611,0,0.611,0.458S110.753,55,110.566,55h-5.104V62.886z M109.328,61.784c-0.339-1.034-0.95-2.527-2.001-4.087   c-0.237-0.339-0.288-0.441-0.288-0.577c0-0.236,0.237-0.457,0.492-0.457c0.271,0,0.577,0.356,1.018,0.882   c1.136,1.356,2.815,3.8,2.815,4.409s-0.56,0.966-0.933,0.966C109.735,62.919,109.6,62.598,109.328,61.784z"
       id="path22"
       style="fill:#000000" /><path
       fill="#FFFFFF"
       d="M116.109,53.101c-0.204,0-0.611,0-0.611-0.458c0-0.457,0.407-0.457,0.611-0.457h8.614   c0.899,0,1.221,0.729,1.221,1.151c0,0.814-1.254,3.493-2.627,5.409c2.645,1.408,3.984,2.612,4.086,2.696   c1.018,0.916,1.255,1.119,1.255,1.544c0,0.424-0.373,1-1.017,1c-0.441,0-0.527-0.102-1.256-1.068c-1-1.355-2.289-2.458-3.68-3.392   c-0.475,0.577-1.934,2.307-4.984,3.663c-1.273,0.56-2.562,0.95-2.697,0.95c-0.237,0-0.441-0.204-0.441-0.458   c0-0.322,0.085-0.356,1.017-0.695c6.58-2.392,8.123-8.938,8.123-9.445c0-0.17-0.084-0.44-0.492-0.44H116.109z"
       id="path24"
       style="fill:#000000" /><path
       fill="#FFFFFF"
       d="M132.285,53.101c-0.188,0-0.627,0-0.627-0.458c0-0.457,0.441-0.476,0.627-0.476h11.464   c0.983,0,1.271,0.78,1.271,1.153c0,0.61-1.052,1.967-1.695,2.765c-2.086,2.51-3.936,3.611-4.969,4.223   c0.848,0.729,1.137,1.052,2.137,2.205c0.339,0.39,0.559,0.627,0.559,1.018c0,0.491-0.474,1.017-1.068,1.017   c-0.424,0-0.49-0.117-1.084-1.102c-1.526-2.493-3.342-3.918-4.207-4.46c-0.406-0.271-0.576-0.374-0.576-0.627   c0-0.255,0.221-0.459,0.475-0.459c0.526,0,2.578,1.476,2.899,1.713c0.204-0.152,1.12-0.813,1.288-0.966   c3.02-2.696,3.951-5.104,3.951-5.258c0-0.187-0.151-0.288-0.338-0.288H132.285z"
       id="path26"
       style="fill:#000000" /><path
       fill="#FFFFFF"
       d="M151.395,58.765c-0.391-1.271-0.813-1.968-1.238-2.646c-0.135-0.221-0.188-0.305-0.188-0.424   c0-0.221,0.188-0.373,0.391-0.373c0.222,0,0.781,0.678,1.053,1c0.779,0.933,1.543,2.188,1.543,2.578   c0,0.509-0.424,0.763-0.764,0.763C151.666,59.647,151.581,59.359,151.395,58.765z M160.704,55.136c0,0.22-0.39,3.426-1.765,5.766   c-1,1.679-2.678,3.324-5.867,4.375c-0.168,0.051-0.508,0.17-0.645,0.17c-0.187,0-0.373-0.17-0.373-0.373   c0-0.271,0.153-0.306,0.577-0.458c2.086-0.713,5.767-2.68,6.325-8.835c0.102-1.103,0.136-1.458,0.898-1.458   C160.348,54.323,160.704,54.627,160.704,55.136z M154.956,57.358c-0.288-0.865-0.458-1.188-0.831-1.849   c-0.204-0.373-0.236-0.425-0.236-0.525c0-0.188,0.168-0.356,0.389-0.356c0.373,0,2.291,2.442,2.291,3.069   c0,0.525-0.51,0.729-0.695,0.729C155.329,58.427,155.277,58.291,154.956,57.358z"
       id="path28"
       style="fill:#000000" /><path
       fill="#FFFFFF"
       d="M173.708,56.306h5.206c0.17,0,0.609,0,0.609,0.475c0,0.458-0.424,0.458-0.609,0.458h-5.206   c-0.067,1.645-0.203,4.477-2.61,6.376c-1.477,1.171-3.646,1.628-3.867,1.628s-0.457-0.187-0.457-0.475   c0-0.339,0.136-0.373,0.83-0.595c3.545-1.102,4.172-3.934,4.205-6.936h-6.104c-0.17,0-0.609,0-0.609-0.458   c0-0.475,0.424-0.475,0.609-0.475h6.104v-3.239c-1.576,0.188-3.17,0.34-4.765,0.34c-0.392,0-0.577-0.187-0.577-0.475   c0-0.392,0.119-0.458,1.153-0.51c3.985-0.188,6.885-1.067,7.919-1.459c0.594-0.221,0.798-0.288,0.984-0.288   c0.474,0,0.863,0.44,0.863,0.883c0,0.441-0.271,0.577-1.221,0.779c-0.982,0.222-1.866,0.373-2.459,0.476L173.708,56.306   L173.708,56.306z"
       id="path30"
       style="fill:#000000" /></g></svg>